<?xml version="1.0" encoding="utf-8"?>
<!-- Generator: Adobe Illustrator 25.4.1, SVG Export Plug-In . SVG Version: 6.00 Build 0)  -->
<svg version="1.1" id="Camada_1" xmlns="http://www.w3.org/2000/svg" xmlns:xlink="http://www.w3.org/1999/xlink" x="0px" y="0px"
	 viewBox="0 0 145.1 35.1" style="enable-background:new 0 0 145.1 35.1;" xml:space="preserve">
<style type="text/css">
	.st0{fill:#205266;}
	.st1{fill:#63D391;}
	.st2{fill:#1C2F35;}
</style>
<g id="Grupo_985" transform="translate(-365.505 -369.639)">
	<g id="Grupo_165" transform="translate(415.799 379.399)">
		<g id="Grupo_164">
			<path id="Caminho_101" class="st0" d="M7.1,12.6c-0.2,0-0.3,0.1-0.5,0.1s-0.5,0-0.7,0c-0.4,0-0.8-0.1-1.1-0.2
				c-0.3-0.3-0.4-0.6-0.3-1V7.3c0-0.3-0.1-0.6-0.3-0.8C3.9,6.3,3.6,6.2,3.3,6.2c-0.2,0-0.4,0-0.6,0.1C2.5,6.4,2.3,6.5,2.1,6.7
				c0,0.1,0,0.1,0,0.2s0,0.1,0,0.2v5.6c-0.2,0-0.3,0.1-0.5,0.1s-0.5,0-0.7,0c-0.4,0-0.8-0.1-1.1-0.2c-0.3-0.3-0.4-0.6-0.3-1V7.3
				c0-0.3-0.1-0.6-0.3-0.8C-1,6.3-1.3,6.2-1.6,6.2c-0.2,0-0.4,0-0.6,0.1s-0.3,0.1-0.5,0.2v6.1c-0.2,0-0.3,0.1-0.5,0.1s-0.5,0-0.7,0
				c-0.4,0-0.8-0.1-1.1-0.2c-0.3-0.2-0.4-0.6-0.3-1V6.3c0-0.3,0.1-0.5,0.2-0.7C-5,5.4-4.9,5.2-4.7,5c0.4-0.3,0.9-0.5,1.4-0.6
				c0.6-0.2,1.1-0.2,1.7-0.2c0.5,0,0.9,0.1,1.4,0.2S0.7,4.7,1,5c0.4-0.2,0.8-0.4,1.2-0.6c0.5-0.2,1-0.2,1.5-0.2
				c0.4,0,0.9,0.1,1.3,0.2c0.4,0,0.7,0.2,1,0.5s0.6,0.6,0.7,1C7,6.3,7.1,6.8,7.1,7.3V12.6z"/>
			<path id="Caminho_102" class="st0" d="M14.9,8.4l3,2.9c0,0.4-0.2,0.8-0.4,1.1c-0.3,0.3-0.6,0.4-1,0.4c-0.3,0-0.6-0.1-0.9-0.2
				c-0.3-0.2-0.6-0.5-0.8-0.8l-2-2.4v3.3c-0.2,0-0.3,0.1-0.5,0.1s-0.5,0-0.7,0c-0.4,0-0.8-0.1-1.1-0.2c-0.3-0.2-0.4-0.6-0.3-1v-10
				c0.1,0,0.3-0.1,0.5-0.1s0.5-0.1,0.7-0.1c0.4,0,0.8,0.1,1.1,0.3c0.3,0.3,0.4,0.6,0.3,1v4.8l3.1-3.1c0.5,0,0.9,0.1,1.3,0.4
				c0.3,0.2,0.5,0.5,0.5,0.9c0,0.3-0.1,0.6-0.3,0.8c-0.3,0.3-0.6,0.6-1,0.9L14.9,8.4z"/>
			<path id="Caminho_103" class="st0" d="M26.4,10.6c0,0.7-0.3,1.3-0.8,1.7c-0.7,0.5-1.5,0.7-2.3,0.6c-0.4,0-0.8,0-1.2-0.1
				c-0.3-0.1-0.6-0.2-0.9-0.3c-0.2-0.1-0.4-0.2-0.6-0.4c-0.1-0.1-0.2-0.3-0.2-0.5c0-0.1,0-0.3,0.1-0.4c0.1-0.1,0.2-0.2,0.3-0.3
				c0.3,0.2,0.7,0.4,1.1,0.6c0.4,0.2,0.9,0.3,1.4,0.3c1.2,0,1.8-0.4,1.8-1.2c0-0.6-0.4-1.1-1.2-1.3l-1.4-0.4
				c-0.6-0.1-1.1-0.4-1.5-0.8c-0.3-0.4-0.5-0.9-0.5-1.3c0-0.3,0.1-0.6,0.2-0.9s0.3-0.5,0.6-0.7c0.3-0.2,0.6-0.4,0.9-0.5
				c0.4-0.1,0.9-0.2,1.3-0.2c0.7,0,1.3,0.1,1.9,0.4c0.5,0.2,0.7,0.5,0.7,0.8c0,0.1,0,0.3-0.1,0.4s-0.2,0.2-0.3,0.3
				c-0.3-0.2-0.6-0.3-0.9-0.4c-0.4-0.2-0.9-0.2-1.3-0.2s-0.9,0.1-1.2,0.3c-0.3,0.2-0.5,0.5-0.5,0.8c0,0.2,0.1,0.5,0.3,0.7
				C22.3,7.8,22.6,8,23,8l1.2,0.3c0.6,0.1,1.2,0.4,1.7,0.9C26.2,9.4,26.4,10,26.4,10.6z"/>
			<path id="Caminho_104" class="st0" d="M36.6,8.7c0,0.6-0.1,1.2-0.3,1.7s-0.4,0.9-0.8,1.3c-0.3,0.4-0.8,0.7-1.2,0.8
				c-1,0.4-2.2,0.4-3.2,0c-0.5-0.2-0.9-0.5-1.2-0.8c-0.4-0.4-0.6-0.8-0.8-1.3c-0.2-0.6-0.3-1.1-0.3-1.7c0-0.6,0.1-1.2,0.3-1.7
				c0.2-0.5,0.4-0.9,0.8-1.3c0.3-0.4,0.8-0.7,1.2-0.8c1-0.4,2.2-0.4,3.2,0c0.5,0.2,0.9,0.5,1.2,0.8s0.6,0.8,0.8,1.3
				S36.6,8.1,36.6,8.7z M32.7,5.7c-0.7,0-1.4,0.3-1.8,0.8C30,7.8,30,9.6,30.8,11c0.5,0.5,1.1,0.8,1.8,0.8c0.7,0,1.4-0.3,1.8-0.8
				c0.9-1.4,0.9-3.1,0-4.5C34,5.9,33.4,5.6,32.7,5.7L32.7,5.7z"/>
			<path id="Caminho_105" class="st0" d="M40.2,12.7c-0.1,0-0.2,0-0.4,0c-0.5,0-0.7-0.2-0.7-0.6V1.6c0.1,0,0.2-0.1,0.3-0.1
				s0.2,0,0.4,0c0.5,0,0.7,0.2,0.7,0.6v10.6C40.4,12.7,40.3,12.7,40.2,12.7z"/>
			<path id="Caminho_106" class="st0" d="M43.1,4.8c0.1,0,0.2-0.1,0.3-0.1s0.3,0,0.4,0c0.5,0,0.7,0.2,0.7,0.6v4.4
				c-0.1,0.6,0.2,1.2,0.6,1.6c0.5,0.3,1,0.5,1.6,0.5c0.4,0,0.8,0,1.2-0.1c0.3-0.1,0.5-0.2,0.8-0.3V4.8c0.1,0,0.2-0.1,0.3-0.1
				s0.2,0,0.4,0c0.5,0,0.7,0.2,0.7,0.6v6c0,0.2,0,0.4-0.1,0.6c-0.1,0.2-0.3,0.3-0.5,0.4c-0.3,0.2-0.7,0.3-1.1,0.4
				c-0.5,0.1-1.1,0.2-1.7,0.2c-0.9,0.1-1.9-0.2-2.6-0.8c-0.7-0.6-1-1.5-0.9-2.4L43.1,4.8z"/>
			<path id="Caminho_107" class="st0" d="M55.8,12.9c-0.7,0-1.4-0.2-1.9-0.5c-0.5-0.4-0.8-1.1-0.7-1.8V2.5c0.1,0,0.2-0.1,0.3-0.1
				s0.3,0,0.4,0c0.5,0,0.7,0.2,0.7,0.6v2h2.8c0,0.1,0.1,0.2,0.1,0.2c0,0.1,0.1,0.2,0.1,0.3c0,0.4-0.2,0.6-0.5,0.6h-2.4v4.4
				c0,0.4,0.1,0.7,0.4,1c0.3,0.2,0.7,0.3,1.1,0.3c0.2,0,0.4,0,0.6-0.1c0.2-0.1,0.4-0.1,0.6-0.2c0.1,0.1,0.1,0.2,0.2,0.3
				c0.1,0.1,0.1,0.2,0.1,0.4c0,0.3-0.2,0.5-0.4,0.6C56.6,12.8,56.2,12.9,55.8,12.9z"/>
			<path id="Caminho_108" class="st0" d="M60.4,2.3c0-0.2,0.1-0.4,0.2-0.6c0.2-0.2,0.4-0.3,0.6-0.2c0.5,0,0.9,0.3,0.9,0.8
				s-0.3,0.9-0.8,0.9c0,0,0,0-0.1,0c-0.2,0-0.5-0.1-0.6-0.2C60.5,2.7,60.4,2.5,60.4,2.3z M62,12.6c-0.1,0-0.2,0.1-0.3,0.1
				s-0.2,0-0.4,0c-0.5,0-0.7-0.2-0.7-0.6V4.8c0.1,0,0.2-0.1,0.3-0.1s0.3,0,0.4,0c0.5,0,0.7,0.2,0.7,0.6V12.6z"/>
			<path id="Caminho_109" class="st0" d="M72.3,8.7c0,0.6-0.1,1.2-0.3,1.7c-0.2,0.5-0.4,0.9-0.8,1.3c-0.3,0.4-0.8,0.7-1.2,0.8
				c-1,0.4-2.2,0.4-3.2,0c-0.5-0.2-0.9-0.5-1.2-0.8c-0.4-0.4-0.6-0.8-0.8-1.3c-0.2-0.6-0.3-1.1-0.3-1.7c0-0.6,0.1-1.2,0.3-1.7
				c0.2-0.5,0.4-1,0.8-1.3c0.3-0.4,0.8-0.7,1.2-0.8c1-0.4,2.2-0.4,3.2,0c0.5,0.2,0.9,0.5,1.2,0.8C71.6,6,71.8,6.5,72,7
				S72.3,8.1,72.3,8.7z M68.4,5.7c-0.7,0-1.4,0.3-1.8,0.8c-0.9,1.4-0.9,3.1,0,4.5c0.5,0.5,1.1,0.8,1.8,0.8c0.7,0,1.4-0.3,1.8-0.8
				c0.9-1.4,0.9-3.1,0-4.5C69.8,5.9,69.1,5.6,68.4,5.7L68.4,5.7z"/>
			<path id="Caminho_110" class="st0" d="M79.5,6.1c-0.5-0.3-1-0.5-1.5-0.4c-0.4,0-0.8,0.1-1.2,0.2c-0.3,0.1-0.6,0.2-0.9,0.4v6.4
				c-0.1,0-0.2,0.1-0.3,0.1c-0.1,0-0.2,0-0.4,0c-0.5,0-0.7-0.2-0.7-0.6V6.3c0-0.2,0-0.4,0.1-0.6s0.3-0.3,0.5-0.5
				c0.4-0.2,0.8-0.4,1.2-0.5c0.5-0.2,1.1-0.2,1.7-0.2c0.9,0,1.7,0.2,2.5,0.7c0.6,0.5,1,1.4,0.9,2.2v5.2c-0.1,0-0.2,0.1-0.3,0.1
				c-0.1,0-0.2,0-0.4,0c-0.5,0-0.7-0.2-0.7-0.6V7.5C80,7,79.8,6.5,79.5,6.1z"/>
			<path id="Caminho_111" class="st0" d="M89.8,10.6c0,0.7-0.3,1.3-0.8,1.7c-0.7,0.5-1.5,0.7-2.3,0.6c-0.4,0-0.8,0-1.2-0.1
				c-0.3-0.1-0.6-0.2-0.9-0.3c-0.2-0.1-0.4-0.2-0.6-0.4c-0.1-0.1-0.2-0.3-0.2-0.5c0-0.1,0-0.3,0.1-0.4c0.1-0.1,0.2-0.2,0.3-0.3
				c0.3,0.2,0.7,0.4,1.1,0.6c0.4,0.2,0.9,0.3,1.4,0.3c1.2,0,1.8-0.4,1.8-1.2c0-0.6-0.4-1.1-1.2-1.3l-1.4-0.4
				c-0.6-0.1-1.1-0.4-1.5-0.8c-0.3-0.4-0.5-0.9-0.5-1.3c0-0.3,0.1-0.6,0.2-0.9s0.3-0.5,0.6-0.7C85,5,85.3,4.8,85.6,4.7
				c0.4-0.1,0.9-0.2,1.3-0.2c0.7,0,1.3,0.1,1.9,0.4c0.5,0.2,0.7,0.5,0.7,0.8c0,0.1,0,0.3-0.1,0.4s-0.2,0.2-0.3,0.3
				c-0.3-0.2-0.6-0.3-0.9-0.4c-0.4-0.2-0.9-0.2-1.3-0.2S86,5.9,85.7,6.1c-0.3,0.2-0.5,0.5-0.5,0.8c0,0.2,0.1,0.5,0.3,0.7
				C85.7,7.8,86,8,86.4,8l1.2,0.3c0.6,0.1,1.2,0.4,1.7,0.9C89.6,9.4,89.8,10,89.8,10.6z"/>
		</g>
	</g>
	<g id="Grupo_548" transform="translate(365.505 369.639)">
		<path id="União_8_00000143596945016180859820000006737847517269835397_" class="st1" d="M11,30.6c0-0.1,0-0.3,0.1-0.4L19.6,4
			c0.1-0.4,0.5-0.7,1-0.6c0.3,0.1,0.5,0.3,0.6,0.5c0.3,0.6,2.3,4.9,4.1,6.2c2.6,1.9,6.9-0.9,7.4-1.3c0.3-0.3,0.9-0.2,1.1,0.1
			S34,9.8,33.7,10l0,0c-0.3,0.2-6.6,5.1-6.6,8.3c0,2.3,2,4.8,3.7,6.7c1.4,1.6,2.6,2.8,2.8,3c0.3,0.3,0.4,0.8,0.1,1.1
			c-0.3,0.3-0.8,0.4-1.1,0.1c-0.2-0.2-1.9-1.7-3.8-3.2c-2.2-1.8-4.6-3.6-6.5-3.5c-4.1,0.3-8.7,7.7-9.2,8.5c-0.3,0.5-1,0.7-1.5,0.5
			C11.2,31.4,11,31,11,30.6z"/>
		<path id="União_7_00000053503315875527137820000004108376314537334954_" class="st0" d="M23.9,29.5c-0.1-0.7-2.5-11.9-5.4-13.1
			c-2.8-1.2-10.8,7.2-11.6,8c-0.4,0.5-1,0.5-1.5,0.2c-0.4-0.3-0.5-0.8-0.3-1.3l6-18.2c0.1-0.4,0.6-0.7,1-0.6
			c0.2,0.1,0.4,0.2,0.5,0.4c0.3,0.5,3.3,6.1,5.6,6.9c2.5,0.8,5.9-0.8,6.1-0.9c0.4-0.2,0.9,0,1.1,0.4c0.1,0.1,0.1,0.2,0.1,0.4l0,0
			v17.7l0,0c0,0.4-0.4,0.8-0.8,0.8C24.3,30.2,23.9,29.9,23.9,29.5L23.9,29.5z"/>
		<path id="Interseção_8" class="st2" d="M22.2,22.6c-0.1,0-0.1,0-0.2,0c-1-2.9-2.2-5.7-3.6-6.3c-0.7-0.3-1.9,0-3.2,0.7l1.9-5.8
			c0.3,0.2,0.6,0.4,1,0.5c2.5,0.8,5.9-0.8,6.1-0.9c0.4-0.2,0.9,0,1.1,0.4c0.1,0.1,0.1,0.2,0.1,0.4l0,0v12
			C24.5,23.1,23.4,22.7,22.2,22.6z"/>
	</g>
</g>
</svg>
